<svg version="1.1"
      xmlns="http://www.w3.org/2000/svg"
      xmlns:xlink="http://www.w3.org/1999/xlink"  id="snapshot-32139" width="250" height="250" viewBox="0 0 250 250"><desc>This image was made on Patterninja.com</desc><defs>
<!-- image 99371 -->
<g id="transformed-99371" data-image="99371" transform="translate(-125, -125) rotate(0, 125, 125)"><g><svg version="1.1" width="250px" height="250px" viewBox="0 0 250 250"><g id="original-99371"><svg xmlns="http://www.w3.org/2000/svg" viewBox="0 0 400 400" xmlns:xlink="http://www.w3.org/1999/xlink" version="1.1" preserveAspectRatio="xMidYMid meet">
  <path d="M306.3 238.8l-17.2-7.2 18-7.4c2.6-1 3.8-4 2.7-6.5-1-2.6-4-3.8-6.5-2.7L276 226.1l-40.3-16.9 18.8-10.4c1.7-1 2.7-2.8 2.6-4.8-.2-2-1.5-3.7-3.4-4.3L231 182l33.7-23.6 30.5 6.1c.3.1.7.1 1 .1 2.3 0 4.4-1.6 4.9-4 .5-2.7-1.2-5.3-3.9-5.9l-21.1-4.2 19.3-13.5c2.3-1.6 2.8-4.7 1.2-7-1.6-2.3-4.7-2.8-7-1.2l-18.3 12.8 4.1-20c.6-2.7-1.2-5.3-3.9-5.9-2.7-.6-5.3 1.2-5.9 3.9l-6.2 30.4-33.6 23.6.5-23.1c0-2-1.1-3.8-2.9-4.6-1.8-.8-3.9-.5-5.4.8l-16.6 14.5-2.1-41.1L219.9 96c1.8-2.1 1.6-5.2-.5-7.1-2.1-1.8-5.2-1.6-7.1.5l-13.9 16-1.1-21.8c-.1-2.8-2.5-4.9-5.2-4.7-2.8.1-4.9 2.5-4.7 5.2l1.1 21.5-15.7-13.7c-2.1-1.8-5.2-1.6-7.1.5-1.8 2.1-1.6 5.2.5 7.1l23 20 2.2 44-21.4-12.9c-1.7-1-3.8-.9-5.5.2-1.6 1.1-2.4 3.1-2 5.1l4.9 24.5-39.8-16.7-11.9-28.5c-1.1-2.5-4-3.8-6.5-2.7-2.6 1.1-3.8 4-2.7 6.5l8 19.2-20.4-8.6c-2.5-1.1-5.5.1-6.5 2.7-1.1 2.5.1 5.5 2.7 6.5l20.6 8.6-19.6 8c-2.6 1-3.8 4-2.7 6.5.8 1.9 2.7 3.1 4.6 3.1.6 0 1.3-.1 1.9-.4l28.9-11.8 37.8 15.9-19.3 10.6c-1.7 1-2.7 2.8-2.6 4.8.2 2 1.5 3.7 3.4 4.3l21.9 7.4-32.8 23.2-30.7-4.5c-2.7-.4-5.3 1.5-5.7 4.2-.4 2.7 1.5 5.3 4.2 5.7l20.2 2.9-19.2 13.5c-2.3 1.6-2.8 4.7-1.2 7 1 1.4 2.5 2.1 4.1 2.1 1 0 2-.3 2.9-.9l20.3-14.2-3.2 21.3c-.4 2.7 1.5 5.3 4.2 5.7.3 0 .5.1.8.1 2.4 0 4.6-1.8 4.9-4.3l4.6-30.7 32.7-22.9-.5 24c0 2 1.1 3.8 2.9 4.6.7.3 1.4.5 2.1.5 1.2 0 2.4-.4 3.3-1.2l16.2-14.2 2.2 44.1-19.1 22.1c-1.8 2.1-1.6 5.2.5 7.1.9.8 2.1 1.2 3.3 1.2 1.4 0 2.8-.6 3.8-1.7l12.3-14.2.9 17.9c.1 2.7 2.3 4.7 5 4.7h.3c2.8-.1 4.9-2.5 4.7-5.2l-1.1-21 17.4 15.2c.9.8 2.1 1.2 3.3 1.2 1.4 0 2.8-.6 3.8-1.7 1.8-2.1 1.6-5.2-.5-7.1l-24.6-21.5s-.1 0-.1-.1l-2.2-44.2 21.8 13.2c1.7 1 3.8 1 5.5-.2 1.6-1.1 2.4-3.1 2-5.1l-5-25 40.6 17 12.5 30.1c.8 1.9 2.7 3.1 4.6 3.1.6 0 1.3-.1 1.9-.4 2.6-1.1 3.8-4 2.7-6.5l-8.6-20.8 19.3 8.1c.6.3 1.3.4 1.9.4 2 0 3.8-1.2 4.6-3.1 1-2.5-.2-5.5-2.7-6.5zm-66.5-43.3l-15.8 8.7-15.5-6.5 12.3-8.7 19 6.5zm-23.8-34l-.4 19.1-12.8 9-.8-15.8 14-12.3zm-41.4 3.7l17.5 10.5.8 15.4-14.3-6-4-19.9zm-17.5 37.6l16.3-9L188 200l-12.8 9-18.1-6.2zm23.9 34l.4-20 12.3-8.7.9 16.8-13.6 11.9zm41.3-3.6l-17.9-10.8-.8-15.8 14.6 6.1 4.1 20.5z" fill="rgba(99, 233, 255, 0.4418604651162791)" stroke="none"/>
</svg>
</g></svg></g></g>
<!-- /image 99371 -->
</defs><rect x="0" y="0" width="250" height="250" fill="rgba(240, 240, 240, 1)"></rect><use xlink:href="#transformed-99371" transform="translate(-250, -250)"></use><use xlink:href="#transformed-99371" transform="translate(0, -250)"></use><use xlink:href="#transformed-99371" transform="translate(250, -250)"></use><use xlink:href="#transformed-99371" transform="translate(-250, 0)"></use><use xlink:href="#transformed-99371" transform="translate(0, 0)"></use><use xlink:href="#transformed-99371" transform="translate(250, 0)"></use><use xlink:href="#transformed-99371" transform="translate(-250, 250)"></use><use xlink:href="#transformed-99371" transform="translate(0, 250)"></use><use xlink:href="#transformed-99371" transform="translate(250, 250)"></use></svg>